<svg id="Layer_1" data-name="Layer 1" xmlns="http://www.w3.org/2000/svg" viewBox="0 0 763.78 1275.96"><title>GitItLogoBl</title><path d="M702.74,154.21c.83-34.92-6.65-70.68-13.3-105.61-2.49-11.64-6.65-23.28-10.81-34.92C675.29,5.36,666.15-.46,657,1.2a87.72,87.72,0,0,0-15.8,4.16C589.64,22.82,541.42,47.77,494.85,76c-5.82,4.16-15,5-22.45,5-18.29-1.66-35.76-5.82-53.22-6.65-44.07-2.49-89-.83-132.22,6.65-5.82.83-14.14,0-19.13-3.33C217.11,45.27,164.72,17,106.52,1.2c-9.15-2.49-18.29-.83-20,2.49a24.9,24.9,0,0,0-3.33,6.65C76.58,32.8,69.1,55.25,65.77,77.7c-4.16,27.44-8.32,55.71-6.65,82.32,1.66,17.46-3.33,27.44-12.47,39.91C15,239.86.91,286.42.08,337.15A389.7,389.7,0,0,0,18.37,464.37c20,64,59,111.43,118.08,142.19C184.68,632.35,237.9,642.32,292,644c49.06,1.66,97.29,0,146.35.83,49.06,0,97.29-4.16,143.86-19.13s87.31-39.91,118.91-78.17c45.74-55.71,59.87-121.41,62.37-191.26,2.49-53.22-8.32-103.11-39.91-147.18C709.39,193.29,702.74,177.49,702.74,154.21Zm-94,408.29c-20.79,18.29-46.57,26.61-73.18,33.26-51.56,12.47-103.94,15-156.33,13.3-52.39,2.49-103.11-.83-153.84-12.47-37.42-9.15-71.51-23.28-94.8-55.71-37.42-50.72-47.4-148,15-201.23,15.8-13.3,33.26-22.45,54.88-23.28,23.28-1.66,46.57-4.16,69.85-4.16,58.21.83,116.42,3.33,174.62,4.16,26.61,0,53.22-5.82,79.83-4.16,24.11,1.66,49.06,5.82,71.51,15.8,36.59,15.8,55.71,49.06,61.53,87.31C666.15,471,654.51,522.58,608.77,562.5Z"/><ellipse cx="513.97" cy="451.9" rx="55.71" ry="74.01"/><ellipse cx="248.71" cy="451.9" rx="55.71" ry="74.01"/><path d="M193.83,597.42c-27.44,13.3-40.75,30.77-40.75,55.71,0,27.44,13.3,42.41,50.72,52.39l244.47,62.37C608.77,808.63,762.61,854.37,762.61,1009v13.3c0,157.16-104.78,253.62-373.36,253.62-258.61,0-376.69-99.79-376.69-260.27v-15c0-91.47,49.06-167.14,103.11-207.89l-11.64-5c-52.39-23.28-75.67-77.33-75.67-128.06v-1.66C28.35,614.05,50,566.65,95.71,540,45,492.65,241.23,617.38,193.83,597.42ZM617.92,1009c0-64-52.39-89.81-199.57-128.06l-185.43-47.4c-47.4,40.75-80.66,82.32-80.66,167.14v15c0,91.47,54.05,148.85,236.16,148.85,187.1,0,229.51-52.39,229.51-142.19Z"/></svg>